<?xml version="1.0" encoding="utf-8"?>
<!-- Generator: Adobe Illustrator 22.1.0, SVG Export Plug-In . SVG Version: 6.00 Build 0)  -->
<svg version="1.1" id="Layer_1" xmlns="http://www.w3.org/2000/svg" xmlns:xlink="http://www.w3.org/1999/xlink" x="0px" y="0px"
	 viewBox="0 0 548.2 159.2" style="enable-background:new 0 0 548.2 159.2;" xml:space="preserve">
<style type="text/css">
	.st0{fill:#64B046;}
	.st1{fill:#F3744A;stroke:#FFFFFF;stroke-miterlimit:10;}
	.st2{fill:#F3744A;}
	.st3{fill:#F3744A;stroke:#FFFFFF;stroke-width:4;stroke-miterlimit:10;}
	.st4{fill:#B9B8B9;}
</style>
<path class="st0" d="M57.1,101.5L56,98.2c-3-9-11.1-14.4-21.8-14.4c-4.7,0-13.4,1.3-18.5,9.8l-1.7,2.8l-0.6-3.3
	c-0.3-1.9-0.6-3.6-0.7-5.2l-0.3-4.1c0-0.9-0.1-1.8-0.1-2.7c0-37.8,30.7-68.5,68.5-68.5s68.5,30.7,68.5,68.5c0,3.9-0.3,7.8-1,11.8
	l-0.5,2.9l-1.7-2.4c-4.5-6.2-11.6-9.7-20.1-9.7c-9.6,0-17.8,5.1-21.3,13.4l-1.1,2.6l-1.2-2.5c-3.9-8.5-12.2-13.5-22.3-13.5
	c-10,0-18.5,5.7-21.8,14.5L57.1,101.5z"/>
<path class="st0" d="M34.3,81.3c10.6,0,19,4.9,23,13.3c4.3-8.2,12.9-13.3,22.9-13.3c10.2,0,18.8,4.7,23.4,12.7
	c4.4-7.9,12.8-12.7,22.5-12.7c8.2,0,15.4,3,20.3,8.5c0.4-2.9,0.6-5.8,0.6-8.6c0-36.4-29.6-66-66-66s-66,29.6-66,66
	c0,0.8,0,1.7,0.1,2.5l0.3,4c0.1,0.6,0.1,1.3,0.2,2C19.8,84.3,26.5,81.3,34.3,81.3z"/>
<path class="st0" d="M125.6,79.6c-7,0-12.6-5.7-12.6-12.6c0-7,5.7-12.6,12.6-12.6S138.2,60,138.2,67
	C138.2,73.9,132.6,79.6,125.6,79.6z"/>
<path class="st0" d="M80.5,79.6c-7,0-12.6-5.7-12.6-12.6c0-7,5.7-12.6,12.6-12.6c7,0,12.6,5.7,12.6,12.6
	C93.2,73.9,87.5,79.6,80.5,79.6z"/>
<path class="st0" d="M80.5,56.8c-5.6,0-10.2,4.6-10.2,10.2s4.6,10.2,10.2,10.2c5.6,0,10.2-4.6,10.2-10.2S86.2,56.8,80.5,56.8z"/>
<path class="st0" d="M35.5,79.6c-7,0-12.6-5.7-12.6-12.6c0-7,5.7-12.6,12.6-12.6c7,0,12.6,5.7,12.6,12.6
	C48.2,73.9,42.5,79.6,35.5,79.6z"/>
<path class="st1" d="M55.3,144.7l-1.7-0.8c-18.9-8.2-32.9-24.3-38.5-44L15,99.5l0.2-0.4c3.3-7.5,10.4-11.9,19-11.9
	c12.3,0,21.2,9.2,21.2,21.8V144.7z"/>
<path class="st2" d="M17.6,99.7c5.3,18.2,18.1,33.2,35.3,41.2v-32c0-11.4-7.7-19.3-18.7-19.3C26.6,89.6,20.6,93.3,17.6,99.7z"/>
<path class="st1" d="M80.9,149.7c-7.2,0-14.3-1.1-21.1-3.3l-0.9-0.3v-37.1C59,96.3,67.9,87,80.1,87c12.4,0,21,8.9,21,21.5v35.9
	l0,2.2C94.9,148.5,87.5,149.7,80.9,149.7z"/>
<path class="st2" d="M61.5,144.3c12,3.7,25.1,3.9,37.3,0.5v-36.2c0-11.2-7.6-19.1-18.6-19.1c-11,0-18.7,8-18.7,19.4V144.3z"/>
<path class="st1" d="M104.9,145.4V109c0-12.7,8.9-21.9,21.2-21.9c9.7,0,17.4,5.5,20,14.5l0.1,0.4l-0.1,0.4
	c-6.3,19.3-20.6,34.8-39.5,42.4L104.9,145.4z"/>
<path class="st2" d="M126.1,89.6c-11,0-18.7,8-18.7,19.4v32.7c17.2-7.5,30.3-21.9,36.2-39.8C141.2,94.2,134.6,89.6,126.1,89.6z"/>
<circle class="st3" cx="80.5" cy="66" r="12.7"/>
<circle class="st3" cx="35.2" cy="66" r="12.7"/>
<circle class="st3" cx="125.8" cy="66" r="12.7"/>
<g>
	<path class="st2" d="M163.6,14.3h37c7.7,0,14.9,1.3,21.3,3.9c6.5,2.6,12,6.2,16.7,10.7c4.7,4.6,8.3,10,10.8,16.1
		c2.6,6.2,3.8,12.9,3.8,20.1v0.3c0,7.2-1.3,13.9-3.8,20.1c-2.5,6.2-6.2,11.6-10.8,16.2c-4.7,4.6-10.2,8.2-16.7,10.8
		c-6.5,2.6-13.6,3.9-21.3,3.9h-37V14.3z M200.4,100.3c5.2,0,9.9-0.9,14.2-2.6c4.2-1.7,7.9-4.1,10.8-7.2c3-3.1,5.3-6.7,6.9-11
		c1.7-4.3,2.5-8.9,2.5-13.9v-0.3c0-5-0.8-9.6-2.5-13.9c-1.7-4.3-4-8-6.9-11.1c-3-3.1-6.6-5.5-10.8-7.3c-4.2-1.8-9-2.6-14.2-2.6
		h-19.5v69.8H200.4z"/>
	<path class="st2" d="M317,118.3c-7.3,0-14-1.4-20.1-4.1c-6.1-2.7-11.5-6.4-16-11.2c-4.5-4.7-8.1-10.3-10.6-16.7
		c-2.6-6.4-3.9-13.3-3.9-20.6v-0.3c0-7.3,1.3-14.1,3.8-20.5c2.5-6.4,6.1-12,10.6-16.8c4.6-4.8,10-8.6,16.2-11.4s13.1-4.2,20.7-4.2
		c4.5,0,8.7,0.4,12.4,1.2c3.7,0.8,7.2,1.9,10.3,3.3c3.1,1.4,6,3.1,8.6,5c2.6,1.9,5.1,4.1,7.5,6.4l-11.2,13.3
		c-4-3.8-8.2-6.9-12.6-9.2c-4.4-2.3-9.5-3.5-15.2-3.5c-4.7,0-9.1,0.9-13.1,2.8c-4,1.9-7.5,4.5-10.4,7.7c-2.9,3.3-5.2,7.1-6.8,11.5
		c-1.6,4.4-2.4,9.1-2.4,14v0.3c0,5,0.8,9.7,2.4,14.1c1.6,4.4,3.9,8.3,6.8,11.6c2.9,3.3,6.4,5.9,10.4,7.8c4,1.9,8.4,2.8,13.1,2.8
		c6,0,11.2-1.2,15.6-3.6c4.3-2.4,8.6-5.6,12.9-9.7l11.2,11.7c-2.5,2.8-5.2,5.3-8,7.5c-2.8,2.2-5.8,4.1-9,5.7
		c-3.2,1.6-6.7,2.8-10.6,3.7C325.9,117.8,321.6,118.3,317,118.3z"/>
	<path class="st0" d="M371.8,14.3h37c7.7,0,14.8,1.3,21.3,3.9c6.5,2.6,12,6.2,16.7,10.7c4.7,4.6,8.3,10,10.8,16.1
		c2.5,6.2,3.8,12.9,3.8,20.1v0.3c0,7.2-1.3,13.9-3.8,20.1c-2.5,6.2-6.2,11.6-10.8,16.2c-4.7,4.6-10.2,8.2-16.7,10.8
		c-6.5,2.6-13.6,3.9-21.3,3.9h-37V14.3z M408.7,100.3c5.2,0,9.9-0.9,14.2-2.6c4.2-1.7,7.9-4.1,10.8-7.2c3-3.1,5.3-6.7,6.9-11
		c1.7-4.3,2.5-8.9,2.5-13.9v-0.3c0-5-0.8-9.6-2.5-13.9c-1.7-4.3-4-8-6.9-11.1s-6.6-5.5-10.8-7.3c-4.2-1.8-9-2.6-14.2-2.6h-19.5v69.8
		H408.7z"/>
	<path class="st0" d="M497.5,118c-7.6,0-14-1.6-19.1-4.7c-5.1-3.2-9.3-7.1-12.6-11.8l11.5-12.1c2.9,3.8,5.9,6.7,9,8.8
		c3.1,2.1,6.7,3.1,11,3.1c4.7,0,8.5-1.6,11.4-4.9c2.9-3.3,4.3-8.3,4.3-15.1v-67h17.8v67.5c0,6.1-0.8,11.4-2.4,15.9
		c-1.6,4.5-3.9,8.2-6.8,11.2c-2.9,3-6.4,5.3-10.5,6.8C507,117.2,502.5,118,497.5,118z"/>
</g>
<g>
	<path class="st4" d="M163.7,126.8h7.4c1.5,0,3,0.3,4.2,0.8c1.3,0.5,2.4,1.3,3.3,2.2c0.9,0.9,1.7,2,2.2,3.3c0.5,1.3,0.8,2.6,0.8,4.1
		v0.1c0,1.5-0.3,2.9-0.8,4.1s-1.2,2.4-2.2,3.3c-0.9,0.9-2,1.7-3.3,2.2s-2.7,0.8-4.2,0.8h-7.4V126.8z M171,144.4c1,0,2-0.2,2.8-0.5
		c0.8-0.4,1.6-0.8,2.2-1.5s1.1-1.4,1.4-2.3c0.3-0.9,0.5-1.8,0.5-2.8v-0.1c0-1-0.2-2-0.5-2.9c-0.3-0.9-0.8-1.6-1.4-2.3
		s-1.3-1.1-2.2-1.5c-0.8-0.4-1.8-0.5-2.8-0.5h-3.9v14.3H171z"/>
	<path class="st4" d="M191.9,148.1c-1.1,0-2.1-0.2-3-0.6c-0.9-0.4-1.7-1-2.4-1.7c-0.7-0.7-1.2-1.6-1.6-2.6c-0.4-1-0.6-2.1-0.6-3.3
		v-0.1c0-1.1,0.2-2.2,0.5-3.2c0.4-1,0.9-1.9,1.5-2.6s1.4-1.3,2.3-1.8c0.9-0.4,1.9-0.6,2.9-0.6c1.2,0,2.2,0.2,3.1,0.7
		c0.9,0.5,1.6,1.1,2.2,1.9c0.6,0.8,1,1.7,1.3,2.7c0.3,1,0.5,2.1,0.5,3.3c0,0.2,0,0.3,0,0.5c0,0.2,0,0.3,0,0.5h-10.9
		c0.2,1.3,0.7,2.3,1.5,3c0.8,0.7,1.7,1,2.8,1c0.8,0,1.6-0.2,2.2-0.5s1.2-0.8,1.8-1.4l2,1.9c-0.7,0.9-1.6,1.6-2.6,2.2
		S193.3,148.1,191.9,148.1z M195.3,138.7c-0.1-0.6-0.2-1.1-0.4-1.6c-0.2-0.5-0.4-0.9-0.8-1.3s-0.7-0.7-1.1-0.9
		c-0.4-0.2-0.9-0.3-1.5-0.3c-1.1,0-1.9,0.4-2.6,1.2c-0.7,0.8-1.1,1.8-1.3,3H195.3z"/>
	<path class="st4" d="M207,148.1c-1.1,0-2.2-0.2-3.3-0.6c-1.1-0.4-2.1-1-3.1-1.8l1.5-2.5c0.8,0.6,1.6,1.1,2.5,1.5
		c0.8,0.3,1.6,0.5,2.4,0.5c0.7,0,1.3-0.2,1.7-0.5c0.4-0.3,0.6-0.7,0.6-1.2v-0.1c0-0.3-0.1-0.6-0.3-0.8s-0.4-0.4-0.7-0.6
		c-0.3-0.2-0.7-0.3-1.1-0.4s-0.8-0.3-1.3-0.4c-0.5-0.2-1.1-0.3-1.7-0.6c-0.6-0.2-1.1-0.5-1.5-0.9s-0.8-0.8-1.1-1.3s-0.4-1.2-0.4-1.9
		v-0.1c0-0.7,0.1-1.4,0.4-2c0.3-0.6,0.6-1.1,1.1-1.5s1-0.7,1.7-1c0.6-0.2,1.3-0.3,2.1-0.3c0.9,0,1.9,0.2,2.8,0.5
		c1,0.3,1.8,0.8,2.6,1.3l-1.4,2.6c-0.7-0.5-1.4-0.8-2.2-1.1s-1.4-0.4-2-0.4c-0.7,0-1.2,0.2-1.5,0.4c-0.4,0.3-0.6,0.7-0.6,1.1v0.1
		c0,0.3,0.1,0.5,0.3,0.7c0.2,0.2,0.4,0.4,0.7,0.6c0.3,0.2,0.7,0.3,1.1,0.5c0.4,0.1,0.8,0.3,1.3,0.4c0.5,0.2,1.1,0.4,1.6,0.6
		c0.5,0.2,1,0.5,1.5,0.9c0.4,0.3,0.8,0.8,1.1,1.3c0.3,0.5,0.4,1.1,0.4,1.8v0.1c0,0.8-0.1,1.6-0.4,2.2c-0.3,0.6-0.7,1.1-1.2,1.5
		c-0.5,0.4-1.1,0.7-1.8,0.9C208.5,148,207.7,148.1,207,148.1z"/>
	<path class="st4" d="M233.4,148.1c-1.4,0-2.8-0.3-4-0.8s-2.3-1.3-3.2-2.3c-0.9-1-1.6-2.1-2.1-3.4s-0.8-2.7-0.8-4.2v-0.1
		c0-1.5,0.3-2.9,0.8-4.2c0.5-1.3,1.2-2.5,2.1-3.5c0.9-1,2-1.8,3.2-2.3c1.2-0.6,2.6-0.9,4.1-0.9c0.9,0,1.7,0.1,2.5,0.2
		c0.7,0.2,1.4,0.4,2,0.7s1.2,0.6,1.7,1c0.5,0.4,1,0.8,1.5,1.3l-2.2,2.7c-0.8-0.8-1.6-1.4-2.5-1.9c-0.9-0.5-1.9-0.7-3-0.7
		c-0.9,0-1.8,0.2-2.6,0.6c-0.8,0.4-1.5,0.9-2.1,1.6c-0.6,0.7-1,1.5-1.4,2.4s-0.5,1.9-0.5,2.9v0.1c0,1,0.2,2,0.5,2.9
		c0.3,0.9,0.8,1.7,1.4,2.4c0.6,0.7,1.3,1.2,2.1,1.6c0.8,0.4,1.7,0.6,2.6,0.6c1.2,0,2.2-0.2,3.1-0.7c0.9-0.5,1.7-1.2,2.6-2l2.2,2.4
		c-0.5,0.6-1,1.1-1.6,1.5c-0.6,0.4-1.2,0.8-1.8,1.2c-0.6,0.3-1.3,0.6-2.1,0.8C235.2,148,234.4,148.1,233.4,148.1z"/>
	<path class="st4" d="M244.4,125.9h3.4v8.5c0.2-0.4,0.5-0.7,0.8-1.1c0.3-0.3,0.6-0.6,1-0.9c0.4-0.3,0.8-0.5,1.3-0.6
		c0.5-0.2,1-0.2,1.6-0.2c1.7,0,3,0.6,3.9,1.6c0.9,1.1,1.4,2.6,1.4,4.4v10.1h-3.4v-9c0-1.2-0.3-2.2-0.8-2.9c-0.5-0.7-1.3-1-2.3-1
		c-1,0-1.8,0.3-2.4,1c-0.6,0.7-0.9,1.7-0.9,2.9v8.9h-3.4V125.9z"/>
	<path class="st4" d="M261.7,126h3.7v3.5h-3.7V126z M261.8,131.9h3.4v15.8h-3.4V131.9z"/>
	<path class="st4" d="M270.2,135h-1.9v-3h1.9v-1.1c0-1.8,0.4-3.1,1.2-3.9c0.8-0.8,1.9-1.3,3.4-1.3c0.6,0,1.1,0,1.6,0.1
		c0.4,0.1,0.8,0.2,1.2,0.3v3.1c-0.3-0.1-0.7-0.2-1-0.3s-0.7-0.1-1-0.1c-1.3,0-2,0.8-2,2.4v0.9h4v3h-3.9v12.7h-3.4V135z"/>
	<path class="st4" d="M280.5,135h-1.9v-3h1.9v-1.1c0-1.8,0.4-3.1,1.2-3.9c0.8-0.8,1.9-1.3,3.4-1.3c0.6,0,1.1,0,1.6,0.1
		c0.4,0.1,0.8,0.2,1.2,0.3v3.1c-0.3-0.1-0.7-0.2-1-0.3s-0.7-0.1-1-0.1c-1.3,0-2,0.8-2,2.4v0.9h4v3h-3.9v12.7h-3.4V135z"/>
	<path class="st4" d="M290,131.9h3.4v3.6c0.5-1.2,1.1-2.2,2-2.9c0.9-0.7,2-1.1,3.3-1v3.8h-0.2c-0.8,0-1.4,0.1-2.1,0.4
		c-0.6,0.3-1.2,0.7-1.6,1.2c-0.5,0.5-0.8,1.2-1,2c-0.2,0.8-0.4,1.7-0.4,2.7v6H290V131.9z"/>
	<path class="st4" d="M308.2,148.1c-1.1,0-2.1-0.2-3-0.6c-0.9-0.4-1.7-1-2.4-1.7c-0.7-0.7-1.2-1.6-1.6-2.6c-0.4-1-0.6-2.1-0.6-3.3
		v-0.1c0-1.1,0.2-2.2,0.5-3.2c0.4-1,0.9-1.9,1.5-2.6c0.6-0.8,1.4-1.3,2.3-1.8s1.9-0.6,2.9-0.6c1.2,0,2.2,0.2,3.1,0.7
		c0.9,0.5,1.6,1.1,2.2,1.9c0.6,0.8,1,1.7,1.3,2.7c0.3,1,0.5,2.1,0.5,3.3c0,0.2,0,0.3,0,0.5c0,0.2,0,0.3,0,0.5H304
		c0.2,1.3,0.7,2.3,1.5,3c0.8,0.7,1.7,1,2.8,1c0.8,0,1.6-0.2,2.2-0.5c0.6-0.3,1.2-0.8,1.8-1.4l2,1.9c-0.7,0.9-1.6,1.6-2.6,2.2
		S309.6,148.1,308.2,148.1z M311.6,138.7c-0.1-0.6-0.2-1.1-0.4-1.6c-0.2-0.5-0.4-0.9-0.8-1.3c-0.3-0.4-0.7-0.7-1.1-0.9
		c-0.4-0.2-0.9-0.3-1.5-0.3c-1.1,0-1.9,0.4-2.6,1.2c-0.7,0.8-1.1,1.8-1.3,3H311.6z"/>
	<path class="st4" d="M323.3,148.1c-1.1,0-2.2-0.2-3.3-0.6s-2.1-1-3.1-1.8l1.5-2.5c0.8,0.6,1.6,1.1,2.5,1.5s1.6,0.5,2.4,0.5
		c0.7,0,1.3-0.2,1.7-0.5c0.4-0.3,0.6-0.7,0.6-1.2v-0.1c0-0.3-0.1-0.6-0.3-0.8s-0.4-0.4-0.7-0.6c-0.3-0.2-0.7-0.3-1.1-0.4
		s-0.8-0.3-1.3-0.4c-0.5-0.2-1.1-0.3-1.7-0.6s-1.1-0.5-1.5-0.9s-0.8-0.8-1.1-1.3s-0.4-1.2-0.4-1.9v-0.1c0-0.7,0.1-1.4,0.4-2
		s0.6-1.1,1.1-1.5s1-0.7,1.7-1c0.6-0.2,1.3-0.3,2.1-0.3c0.9,0,1.9,0.2,2.8,0.5c1,0.3,1.8,0.8,2.6,1.3l-1.4,2.6
		c-0.7-0.5-1.4-0.8-2.2-1.1c-0.7-0.3-1.4-0.4-2-0.4c-0.7,0-1.2,0.2-1.5,0.4c-0.4,0.3-0.6,0.7-0.6,1.1v0.1c0,0.3,0.1,0.5,0.3,0.7
		c0.2,0.2,0.4,0.4,0.7,0.6c0.3,0.2,0.7,0.3,1.1,0.5c0.4,0.1,0.8,0.3,1.3,0.4c0.5,0.2,1.1,0.4,1.6,0.6c0.5,0.2,1,0.5,1.5,0.9
		c0.4,0.3,0.8,0.8,1.1,1.3c0.3,0.5,0.4,1.1,0.4,1.8v0.1c0,0.8-0.1,1.6-0.4,2.2s-0.7,1.1-1.2,1.5c-0.5,0.4-1.1,0.7-1.8,0.9
		C324.8,148,324.1,148.1,323.3,148.1z"/>
	<path class="st4" d="M347,148.1c-1.1,0-2.1-0.2-3-0.6c-0.9-0.4-1.7-1-2.4-1.7c-0.7-0.7-1.2-1.6-1.6-2.6c-0.4-1-0.6-2.1-0.6-3.3
		v-0.1c0-1.1,0.2-2.2,0.5-3.2c0.4-1,0.9-1.9,1.5-2.6c0.6-0.8,1.4-1.3,2.3-1.8s1.9-0.6,2.9-0.6c1.2,0,2.2,0.2,3.1,0.7
		c0.9,0.5,1.6,1.1,2.2,1.9c0.6,0.8,1,1.7,1.3,2.7c0.3,1,0.5,2.1,0.5,3.3c0,0.2,0,0.3,0,0.5c0,0.2,0,0.3,0,0.5h-10.9
		c0.2,1.3,0.7,2.3,1.5,3c0.8,0.7,1.7,1,2.8,1c0.8,0,1.6-0.2,2.2-0.5c0.6-0.3,1.2-0.8,1.8-1.4l2,1.9c-0.7,0.9-1.6,1.6-2.6,2.2
		S348.4,148.1,347,148.1z M350.4,138.7c-0.1-0.6-0.2-1.1-0.4-1.6c-0.2-0.5-0.4-0.9-0.8-1.3c-0.3-0.4-0.7-0.7-1.1-0.9
		c-0.4-0.2-0.9-0.3-1.5-0.3c-1.1,0-1.9,0.4-2.6,1.2c-0.7,0.8-1.1,1.8-1.3,3H350.4z"/>
	<path class="st4" d="M362,148c-0.6,0-1.2-0.1-1.7-0.2c-0.5-0.2-1-0.4-1.4-0.8s-0.7-0.8-0.9-1.4c-0.2-0.6-0.3-1.3-0.3-2.2V135h-1.9
		v-3.1h1.9v-4.4h3.4v4.4h4v3.1h-4v7.8c0,0.7,0.2,1.2,0.5,1.5c0.3,0.3,0.8,0.5,1.4,0.5c0.7,0,1.4-0.2,2.1-0.5v3
		c-0.4,0.3-0.9,0.5-1.4,0.6C363.2,148,362.6,148,362,148z"/>
	<path class="st4" d="M382.6,148.1c-0.9,0-1.7-0.2-2.6-0.5c-0.8-0.4-1.6-0.9-2.2-1.6s-1.2-1.6-1.6-2.6c-0.4-1-0.6-2.2-0.6-3.5v-0.1
		c0-1.3,0.2-2.5,0.6-3.5c0.4-1,0.9-1.9,1.5-2.6c0.6-0.7,1.4-1.2,2.2-1.6c0.8-0.4,1.7-0.5,2.6-0.5c1.2,0,2.2,0.3,3,0.8
		c0.8,0.6,1.5,1.2,2,2v-8.5h3.4v21.9h-3.4l0-2.6c-0.5,0.8-1.2,1.5-2,2.1C384.8,147.8,383.8,148.1,382.6,148.1z M383.4,144.9
		c0.6,0,1.1-0.1,1.6-0.4c0.5-0.2,1-0.6,1.4-1c0.4-0.5,0.7-1,0.9-1.6c0.2-0.6,0.4-1.3,0.4-2.1v-0.1c0-0.8-0.1-1.5-0.4-2.1
		c-0.2-0.6-0.5-1.2-0.9-1.6c-0.4-0.4-0.9-0.8-1.4-1c-0.5-0.2-1.1-0.4-1.6-0.4c-0.6,0-1.1,0.1-1.6,0.3c-0.5,0.2-1,0.6-1.4,1
		s-0.7,1-0.9,1.6c-0.2,0.6-0.3,1.3-0.3,2.1v0.1c0,0.8,0.1,1.5,0.3,2.1c0.2,0.6,0.5,1.2,0.9,1.6c0.4,0.4,0.8,0.8,1.4,1
		C382.2,144.8,382.8,144.9,383.4,144.9z"/>
	<path class="st4" d="M401.9,148.1c-1.1,0-2.1-0.2-3-0.6c-0.9-0.4-1.7-1-2.4-1.7c-0.7-0.7-1.2-1.6-1.6-2.6c-0.4-1-0.6-2.1-0.6-3.3
		v-0.1c0-1.1,0.2-2.2,0.5-3.2c0.4-1,0.9-1.9,1.5-2.6c0.6-0.8,1.4-1.3,2.3-1.8s1.9-0.6,2.9-0.6c1.2,0,2.2,0.2,3.1,0.7
		c0.9,0.5,1.6,1.1,2.2,1.9c0.6,0.8,1,1.7,1.3,2.7c0.3,1,0.5,2.1,0.5,3.3c0,0.2,0,0.3,0,0.5c0,0.2,0,0.3,0,0.5h-10.9
		c0.2,1.3,0.7,2.3,1.5,3c0.8,0.7,1.7,1,2.8,1c0.8,0,1.6-0.2,2.2-0.5c0.6-0.3,1.2-0.8,1.8-1.4l2,1.9c-0.7,0.9-1.6,1.6-2.6,2.2
		S403.2,148.1,401.9,148.1z M405.2,138.7c-0.1-0.6-0.2-1.1-0.4-1.6c-0.2-0.5-0.4-0.9-0.8-1.3c-0.3-0.4-0.7-0.7-1.1-0.9
		c-0.4-0.2-0.9-0.3-1.5-0.3c-1.1,0-1.9,0.4-2.6,1.2c-0.7,0.8-1.1,1.8-1.3,3H405.2z"/>
	<path class="st4" d="M416.9,148.1c-1.1,0-2.2-0.2-3.3-0.6s-2.1-1-3.1-1.8l1.5-2.5c0.8,0.6,1.6,1.1,2.5,1.5s1.6,0.5,2.4,0.5
		c0.7,0,1.3-0.2,1.7-0.5c0.4-0.3,0.6-0.7,0.6-1.2v-0.1c0-0.3-0.1-0.6-0.3-0.8s-0.4-0.4-0.7-0.6c-0.3-0.2-0.7-0.3-1.1-0.4
		s-0.8-0.3-1.3-0.4c-0.5-0.2-1.1-0.3-1.7-0.6s-1.1-0.5-1.5-0.9s-0.8-0.8-1.1-1.3s-0.4-1.2-0.4-1.9v-0.1c0-0.7,0.1-1.4,0.4-2
		s0.6-1.1,1.1-1.5s1-0.7,1.7-1c0.6-0.2,1.3-0.3,2.1-0.3c0.9,0,1.9,0.2,2.8,0.5c1,0.3,1.8,0.8,2.6,1.3l-1.4,2.6
		c-0.7-0.5-1.4-0.8-2.2-1.1c-0.7-0.3-1.4-0.4-2-0.4c-0.7,0-1.2,0.2-1.5,0.4c-0.4,0.3-0.6,0.7-0.6,1.1v0.1c0,0.3,0.1,0.5,0.3,0.7
		c0.2,0.2,0.4,0.4,0.7,0.6c0.3,0.2,0.7,0.3,1.1,0.5c0.4,0.1,0.8,0.3,1.3,0.4c0.5,0.2,1.1,0.4,1.6,0.6c0.5,0.2,1,0.5,1.5,0.9
		c0.4,0.3,0.8,0.8,1.1,1.3c0.3,0.5,0.4,1.1,0.4,1.8v0.1c0,0.8-0.1,1.6-0.4,2.2s-0.7,1.1-1.2,1.5c-0.5,0.4-1.1,0.7-1.8,0.9
		C418.4,148,417.7,148.1,416.9,148.1z"/>
	<path class="st4" d="M438.6,148.1c-1.5,0-2.8-0.3-3.8-1s-1.9-1.5-2.5-2.4l2.3-2.5c0.6,0.8,1.2,1.4,1.8,1.8c0.6,0.4,1.3,0.6,2.2,0.6
		c0.9,0,1.7-0.3,2.3-1c0.6-0.7,0.9-1.7,0.9-3.1v-13.8h3.6v13.9c0,1.3-0.2,2.4-0.5,3.3c-0.3,0.9-0.8,1.7-1.4,2.3
		c-0.6,0.6-1.3,1.1-2.1,1.4C440.5,147.9,439.6,148.1,438.6,148.1z"/>
	<path class="st4" d="M456.1,148.1c-1.1,0-2.1-0.2-3-0.6c-0.9-0.4-1.7-1-2.4-1.7c-0.7-0.7-1.2-1.6-1.6-2.6c-0.4-1-0.6-2.1-0.6-3.3
		v-0.1c0-1.1,0.2-2.2,0.5-3.2c0.4-1,0.9-1.9,1.5-2.6c0.6-0.8,1.4-1.3,2.3-1.8s1.9-0.6,2.9-0.6c1.2,0,2.2,0.2,3.1,0.7
		c0.9,0.5,1.6,1.1,2.2,1.9c0.6,0.8,1,1.7,1.3,2.7c0.3,1,0.5,2.1,0.5,3.3c0,0.2,0,0.3,0,0.5c0,0.2,0,0.3,0,0.5h-10.9
		c0.2,1.3,0.7,2.3,1.5,3c0.8,0.7,1.7,1,2.8,1c0.8,0,1.6-0.2,2.2-0.5c0.6-0.3,1.2-0.8,1.8-1.4l2,1.9c-0.7,0.9-1.6,1.6-2.6,2.2
		S457.5,148.1,456.1,148.1z M459.5,138.7c-0.1-0.6-0.2-1.1-0.4-1.6c-0.2-0.5-0.4-0.9-0.8-1.3c-0.3-0.4-0.7-0.7-1.1-0.9
		c-0.4-0.2-0.9-0.3-1.5-0.3c-1.1,0-1.9,0.4-2.6,1.2c-0.7,0.8-1.1,1.8-1.3,3H459.5z"/>
	<path class="st4" d="M471.2,148.1c-1.7,0-3-0.5-3.9-1.6s-1.4-2.6-1.4-4.4v-10.1h3.4v9c0,1.2,0.3,2.2,0.8,2.9c0.5,0.7,1.3,1,2.3,1
		c1,0,1.8-0.3,2.4-1c0.6-0.7,0.9-1.7,0.9-2.9v-8.9h3.4v15.8h-3.4v-2.5c-0.5,0.8-1.1,1.4-1.8,2S472.3,148.1,471.2,148.1z"/>
	<path class="st4" d="M483.2,131.9h3.4v2.5c0.2-0.4,0.5-0.7,0.8-1.1c0.3-0.3,0.6-0.6,1-0.9c0.4-0.3,0.8-0.5,1.3-0.6
		c0.5-0.2,1-0.2,1.6-0.2c1.7,0,3,0.6,3.9,1.6c0.9,1.1,1.4,2.6,1.4,4.4v10.1h-3.4v-9c0-1.2-0.3-2.2-0.8-2.9c-0.5-0.7-1.3-1-2.3-1
		c-1,0-1.8,0.3-2.4,1c-0.6,0.7-0.9,1.7-0.9,2.9v8.9h-3.4V131.9z"/>
	<path class="st4" d="M507.3,148.1c-1.1,0-2.1-0.2-3-0.6c-0.9-0.4-1.7-1-2.4-1.7c-0.7-0.7-1.2-1.6-1.6-2.6c-0.4-1-0.6-2.1-0.6-3.3
		v-0.1c0-1.1,0.2-2.2,0.5-3.2c0.4-1,0.9-1.9,1.5-2.6c0.6-0.8,1.4-1.3,2.3-1.8s1.9-0.6,2.9-0.6c1.2,0,2.2,0.2,3.1,0.7
		c0.9,0.5,1.6,1.1,2.2,1.9c0.6,0.8,1,1.7,1.3,2.7c0.3,1,0.5,2.1,0.5,3.3c0,0.2,0,0.3,0,0.5c0,0.2,0,0.3,0,0.5h-10.9
		c0.2,1.3,0.7,2.3,1.5,3c0.8,0.7,1.7,1,2.8,1c0.8,0,1.6-0.2,2.2-0.5c0.6-0.3,1.2-0.8,1.8-1.4l2,1.9c-0.7,0.9-1.6,1.6-2.6,2.2
		S508.7,148.1,507.3,148.1z M510.7,138.7c-0.1-0.6-0.2-1.1-0.4-1.6c-0.2-0.5-0.4-0.9-0.8-1.3c-0.3-0.4-0.7-0.7-1.1-0.9
		c-0.4-0.2-0.9-0.3-1.5-0.3c-1.1,0-1.9,0.4-2.6,1.2c-0.7,0.8-1.1,1.8-1.3,3H510.7z"/>
	<path class="st4" d="M522.3,148.1c-1.1,0-2.2-0.2-3.3-0.6s-2.1-1-3.1-1.8l1.5-2.5c0.8,0.6,1.6,1.1,2.5,1.5s1.6,0.5,2.4,0.5
		c0.7,0,1.3-0.2,1.7-0.5c0.4-0.3,0.6-0.7,0.6-1.2v-0.1c0-0.3-0.1-0.6-0.3-0.8s-0.4-0.4-0.7-0.6c-0.3-0.2-0.7-0.3-1.1-0.4
		s-0.8-0.3-1.3-0.4c-0.5-0.2-1.1-0.3-1.7-0.6s-1.1-0.5-1.5-0.9s-0.8-0.8-1.1-1.3s-0.4-1.2-0.4-1.9v-0.1c0-0.7,0.1-1.4,0.4-2
		s0.6-1.1,1.1-1.5s1-0.7,1.7-1c0.6-0.2,1.3-0.3,2.1-0.3c0.9,0,1.9,0.2,2.8,0.5c1,0.3,1.8,0.8,2.6,1.3l-1.4,2.6
		c-0.7-0.5-1.4-0.8-2.2-1.1c-0.7-0.3-1.4-0.4-2-0.4c-0.7,0-1.2,0.2-1.5,0.4c-0.4,0.3-0.6,0.7-0.6,1.1v0.1c0,0.3,0.1,0.5,0.3,0.7
		c0.2,0.2,0.4,0.4,0.7,0.6c0.3,0.2,0.7,0.3,1.1,0.5c0.4,0.1,0.8,0.3,1.3,0.4c0.5,0.2,1.1,0.4,1.6,0.6c0.5,0.2,1,0.5,1.5,0.9
		c0.4,0.3,0.8,0.8,1.1,1.3c0.3,0.5,0.4,1.1,0.4,1.8v0.1c0,0.8-0.1,1.6-0.4,2.2s-0.7,1.1-1.2,1.5c-0.5,0.4-1.1,0.7-1.8,0.9
		C523.8,148,523.1,148.1,522.3,148.1z"/>
</g>
</svg>
